<svg width="1058" height="600" viewBox="0 0 1058 600" fill="none" xmlns="http://www.w3.org/2000/svg">
<path d="M136.189 114.951V112.049C153.5 110.233 161.975 101.099 161.975 83.5611V51.5657C161.975 32.0871 168.693 24.1817 185.298 24.1817H190V7H183.523C155.756 7 142.665 20.5139 142.665 48.8771V76.0118C142.665 95.4903 136.189 101.936 117 101.936V125.064C136.189 125.064 142.665 131.51 142.665 150.988V178.123C142.665 206.486 155.739 220 183.523 220H190V202.836H185.298C168.693 202.836 161.975 194.931 161.975 175.452V143.439C161.975 125.919 153.5 116.785 136.189 114.951V114.951ZM136.189 114.951V112.049C153.5 110.233 161.975 101.099 161.975 83.5611V51.5657C161.975 32.0871 168.693 24.1817 185.298 24.1817H190V7H183.523C155.756 7 142.665 20.5139 142.665 48.8771V76.0118C142.665 95.4903 136.189 101.936 117 101.936V125.064C136.189 125.064 142.665 131.51 142.665 150.988V178.123C142.665 206.486 155.739 220 183.523 220H190V202.836H185.298C168.693 202.836 161.975 194.931 161.975 175.452V143.439C161.975 125.919 153.5 116.785 136.189 114.951" fill="black"/>
<path d="M135.189 310.022V307.978C152.5 306.699 160.975 300.267 160.975 287.916V265.384C160.975 251.667 167.693 246.1 184.298 246.1H189V234H182.523C154.756 234 141.665 243.517 141.665 263.491V282.6C141.665 296.317 135.189 300.856 116 300.856V317.144C135.189 317.144 141.665 321.683 141.665 335.4V354.509C141.665 374.483 154.739 384 182.523 384H189V371.913H184.298C167.693 371.913 160.975 366.346 160.975 352.628V330.084C160.975 317.746 152.5 311.313 135.189 310.022V310.022ZM135.189 310.022V307.978C152.5 306.699 160.975 300.267 160.975 287.916V265.384C160.975 251.667 167.693 246.1 184.298 246.1H189V234H182.523C154.756 234 141.665 243.517 141.665 263.491V282.6C141.665 296.317 135.189 300.856 116 300.856V317.144C135.189 317.144 141.665 321.683 141.665 335.4V354.509C141.665 374.483 154.739 384 182.523 384H189V371.913H184.298C167.693 371.913 160.975 366.346 160.975 352.628V330.084C160.975 317.746 152.5 311.313 135.189 310.022" fill="black"/>
<path d="M96.4286 296.018H84.375V283.339C84.375 281.364 82.779 279.768 80.8036 279.768H45.6473L32.5558 267.246C32.3892 267.09 32.1701 267.002 31.942 267H3.57143C1.59598 267 0 268.596 0 270.571V336.643C0 338.618 1.59598 340.214 3.57143 340.214H81.4732C82.9241 340.214 84.2411 339.333 84.7879 337.982L99.7433 300.929C99.9107 300.504 100 300.047 100 299.589C100 297.614 98.404 296.018 96.4286 296.018ZM76.3393 296.018H19.4196C17.9687 296.018 16.6518 296.9 16.1049 298.25L8.03571 318.25V275.036H29.0737L42.4219 287.804H76.3393V296.018Z" fill="black"/>
<path d="M40 107H70M40 127H55M15 62V142C15 144.652 16.0536 147.196 17.9289 149.071C19.8043 150.946 22.3478 152 25 152H85C87.6522 152 90.1957 150.946 92.0711 149.071C93.9464 147.196 95 144.652 95 142V83.71C94.9998 82.3778 94.7335 81.0591 94.2166 79.8312C93.6997 78.6034 92.9427 77.4912 91.99 76.56L69.79 54.85C67.9218 53.0233 65.4129 52.0003 62.8 52H25C22.3478 52 19.8043 53.0536 17.9289 54.9289C16.0536 56.8043 15 59.3478 15 62V62Z" stroke="black" stroke-width="5" stroke-linecap="round" stroke-linejoin="round"/>
<path d="M65 52V72C65 74.6522 66.0536 77.1957 67.9289 79.0711C69.8043 80.9464 72.3478 82 75 82H95" stroke="black" stroke-width="5" stroke-linejoin="round"/>
<path d="M378 463H332C330.894 463 330 463.894 330 465V511C330 512.106 330.894 513 332 513H378C379.106 513 380 512.106 380 511V465C380 463.894 379.106 463 378 463ZM355.069 488.381L343.069 498.444C342.744 498.719 342.25 498.488 342.25 498.062V494.144C342.25 494 342.319 493.856 342.431 493.763L349.294 488L342.431 482.237C342.374 482.192 342.328 482.134 342.296 482.068C342.265 482.002 342.249 481.929 342.25 481.856V477.938C342.25 477.512 342.744 477.281 343.069 477.556L355.069 487.612C355.312 487.812 355.312 488.181 355.069 488.381V488.381ZM367.75 498.062C367.75 498.338 367.537 498.562 367.281 498.562H355.719C355.463 498.562 355.25 498.338 355.25 498.062V495.062C355.25 494.787 355.463 494.562 355.719 494.562H367.281C367.537 494.562 367.75 494.787 367.75 495.062V498.062Z" fill="black"/>
<path d="M431.4 458V521H324.4V458H431.4ZM324.4 440C312.597 440 303 448.072 303 458V521C303 530.928 312.597 539 324.4 539H363.622L360.044 548H335.1C329.182 548 324.4 552.022 324.4 557C324.4 561.978 329.182 566 335.1 566H420.7C426.618 566 431.4 561.978 431.4 557C431.4 552.022 426.618 548 420.7 548H395.722L392.144 539H431.4C443.203 539 452.8 530.928 452.8 521V458C452.8 448.072 443.203 440 431.4 440H324.4ZM479.55 440C470.689 440 463.5 446.047 463.5 453.5V552.5C463.5 559.953 470.689 566 479.55 566H500.95C509.811 566 517 559.953 517 552.5V453.5C517 446.047 509.811 440 500.95 440H479.55ZM484.9 458H495.6C498.543 458 500.95 460.025 500.95 462.5C500.95 464.975 498.543 467 495.6 467H484.9C481.957 467 479.55 464.975 479.55 462.5C479.55 460.025 481.957 458 484.9 458ZM479.55 480.5C479.55 478.025 481.957 476 484.9 476H495.6C498.543 476 500.95 478.025 500.95 480.5C500.95 482.975 498.543 485 495.6 485H484.9C481.957 485 479.55 482.975 479.55 480.5ZM490.25 543.5C484.332 543.5 479.55 539.478 479.55 534.5C479.55 529.522 484.332 525.5 490.25 525.5C496.168 525.5 500.95 529.522 500.95 534.5C500.95 539.478 496.168 543.5 490.25 543.5Z" fill="black"/>
<g clip-path="url(#clip0_1_44)">
<path d="M372.5 355.536H247.5C246.395 355.536 245.335 355.149 244.554 354.46C243.772 353.771 243.333 352.837 243.333 351.863C243.333 350.888 243.772 349.954 244.554 349.265C245.335 348.576 246.395 348.189 247.5 348.189H372.5C373.605 348.189 374.665 348.576 375.446 349.265C376.228 349.954 376.667 350.888 376.667 351.863C376.667 352.837 376.228 353.771 375.446 354.46C374.665 355.149 373.605 355.536 372.5 355.536Z" fill="black"/>
<path d="M372.5 340.842H369.917C361.982 340.858 354.293 338.412 348.199 333.932C342.104 329.451 337.992 323.223 336.583 316.338C333.417 302.048 326.208 278.169 310 278.169C293.792 278.169 286.292 302.084 283.417 316.338C281.99 323.21 277.871 329.421 271.778 333.886C265.685 338.352 258.006 340.788 250.083 340.768H247.5C246.395 340.768 245.335 340.381 244.554 339.692C243.772 339.003 243.333 338.069 243.333 337.094C243.333 336.12 243.772 335.186 244.554 334.497C245.335 333.808 246.395 333.421 247.5 333.421H250C255.932 333.417 261.676 331.587 266.24 328.247C270.805 324.906 273.903 320.266 275 315.126C280.875 286.177 292.917 271.042 309.792 271.042C326.667 271.042 338.667 286.324 344.5 315.126C345.58 320.279 348.671 324.937 353.237 328.292C357.803 331.647 363.556 333.487 369.5 333.494H372.5C373.605 333.494 374.665 333.881 375.446 334.57C376.228 335.259 376.667 336.194 376.667 337.168C376.667 338.142 376.228 339.077 375.446 339.766C374.665 340.455 373.605 340.842 372.5 340.842V340.842Z" fill="black"/>
</g>
<g clip-path="url(#clip1_1_44)">
<path d="M536.5 355.536H411.5C410.395 355.536 409.335 355.149 408.554 354.46C407.772 353.771 407.333 352.837 407.333 351.863C407.333 350.888 407.772 349.954 408.554 349.265C409.335 348.576 410.395 348.189 411.5 348.189H536.5C537.605 348.189 538.665 348.576 539.446 349.265C540.228 349.954 540.667 350.888 540.667 351.863C540.667 352.837 540.228 353.771 539.446 354.46C538.665 355.149 537.605 355.536 536.5 355.536Z" fill="black"/>
<path d="M536.5 340.842H533.917C525.982 340.858 518.293 338.412 512.199 333.932C506.104 329.451 501.992 323.223 500.583 316.338C497.417 302.048 490.208 278.169 474 278.169C457.792 278.169 450.292 302.084 447.417 316.338C445.99 323.21 441.871 329.421 435.778 333.886C429.685 338.352 422.006 340.788 414.083 340.768H411.5C410.395 340.768 409.335 340.381 408.554 339.692C407.772 339.003 407.333 338.069 407.333 337.094C407.333 336.12 407.772 335.186 408.554 334.497C409.335 333.808 410.395 333.421 411.5 333.421H414C419.932 333.417 425.676 331.587 430.24 328.247C434.805 324.906 437.903 320.266 439 315.126C444.875 286.177 456.917 271.042 473.792 271.042C490.667 271.042 502.667 286.324 508.5 315.126C509.58 320.279 512.671 324.937 517.237 328.292C521.803 331.647 527.556 333.487 533.5 333.494H536.5C537.605 333.494 538.665 333.881 539.446 334.57C540.228 335.259 540.667 336.194 540.667 337.168C540.667 338.142 540.228 339.077 539.446 339.766C538.665 340.455 537.605 340.842 536.5 340.842V340.842Z" fill="black"/>
</g>
<path d="M479.463 381.273V369.273H481.486V370.716H481.605C481.711 370.504 481.861 370.278 482.054 370.04C482.247 369.797 482.509 369.591 482.838 369.42C483.168 369.246 483.588 369.159 484.099 369.159C484.774 369.159 485.382 369.331 485.923 369.676C486.469 370.017 486.901 370.523 487.219 371.193C487.541 371.86 487.702 372.678 487.702 373.648C487.702 374.606 487.545 375.42 487.23 376.091C486.916 376.761 486.488 377.273 485.946 377.625C485.404 377.977 484.791 378.153 484.105 378.153C483.605 378.153 483.19 378.07 482.861 377.903C482.531 377.737 482.266 377.536 482.065 377.301C481.868 377.062 481.715 376.837 481.605 376.625H481.52V381.273H479.463ZM481.48 373.636C481.48 374.201 481.56 374.695 481.719 375.119C481.882 375.544 482.115 375.875 482.418 376.114C482.724 376.348 483.096 376.466 483.531 376.466C483.986 376.466 484.366 376.345 484.673 376.102C484.98 375.856 485.211 375.521 485.366 375.097C485.526 374.669 485.605 374.182 485.605 373.636C485.605 373.095 485.527 372.614 485.372 372.193C485.217 371.773 484.986 371.443 484.679 371.205C484.372 370.966 483.99 370.847 483.531 370.847C483.092 370.847 482.719 370.962 482.412 371.193C482.105 371.424 481.872 371.748 481.713 372.165C481.558 372.581 481.48 373.072 481.48 373.636ZM496.361 371.58L494.486 371.784C494.433 371.595 494.34 371.417 494.207 371.25C494.079 371.083 493.904 370.949 493.685 370.847C493.465 370.744 493.196 370.693 492.878 370.693C492.45 370.693 492.09 370.786 491.798 370.972C491.51 371.157 491.368 371.398 491.372 371.693C491.368 371.947 491.461 372.153 491.651 372.312C491.844 372.472 492.162 372.602 492.605 372.705L494.094 373.023C494.92 373.201 495.533 373.483 495.935 373.869C496.34 374.256 496.545 374.761 496.548 375.386C496.545 375.936 496.384 376.42 496.065 376.841C495.751 377.258 495.313 377.583 494.753 377.818C494.192 378.053 493.548 378.17 492.821 378.17C491.753 378.17 490.893 377.947 490.241 377.5C489.59 377.049 489.202 376.422 489.077 375.619L491.082 375.426C491.173 375.82 491.366 376.117 491.662 376.318C491.957 376.519 492.342 376.619 492.815 376.619C493.304 376.619 493.696 376.519 493.991 376.318C494.291 376.117 494.44 375.869 494.44 375.574C494.44 375.324 494.344 375.117 494.151 374.955C493.961 374.792 493.666 374.667 493.264 374.58L491.776 374.267C490.938 374.093 490.319 373.799 489.918 373.386C489.516 372.97 489.317 372.443 489.321 371.807C489.317 371.269 489.463 370.803 489.759 370.409C490.058 370.011 490.473 369.705 491.003 369.489C491.537 369.269 492.152 369.159 492.849 369.159C493.872 369.159 494.677 369.377 495.264 369.812C495.855 370.248 496.221 370.837 496.361 371.58ZM502.108 378.17C501.233 378.17 500.477 377.989 499.841 377.625C499.208 377.258 498.722 376.739 498.381 376.068C498.04 375.394 497.869 374.6 497.869 373.688C497.869 372.79 498.04 372.002 498.381 371.324C498.725 370.642 499.206 370.112 499.824 369.733C500.441 369.35 501.167 369.159 502 369.159C502.538 369.159 503.045 369.246 503.523 369.42C504.004 369.591 504.428 369.856 504.795 370.216C505.167 370.576 505.458 371.034 505.67 371.591C505.883 372.144 505.989 372.803 505.989 373.568V374.199H498.835V372.812H504.017C504.013 372.419 503.928 372.068 503.761 371.761C503.595 371.451 503.362 371.206 503.062 371.028C502.767 370.85 502.422 370.761 502.028 370.761C501.608 370.761 501.239 370.864 500.92 371.068C500.602 371.269 500.354 371.534 500.176 371.864C500.002 372.189 499.913 372.547 499.909 372.938V374.148C499.909 374.655 500.002 375.091 500.188 375.455C500.373 375.814 500.633 376.091 500.966 376.284C501.299 376.473 501.689 376.568 502.136 376.568C502.436 376.568 502.706 376.527 502.949 376.443C503.191 376.356 503.402 376.229 503.58 376.062C503.758 375.896 503.892 375.689 503.983 375.443L505.903 375.659C505.782 376.167 505.551 376.61 505.21 376.989C504.873 377.364 504.441 377.655 503.915 377.864C503.388 378.068 502.786 378.17 502.108 378.17ZM513.291 374.33V369.273H515.348V378H513.354V376.449H513.263C513.066 376.937 512.742 377.337 512.291 377.648C511.844 377.958 511.293 378.114 510.638 378.114C510.066 378.114 509.56 377.987 509.121 377.733C508.685 377.475 508.344 377.102 508.098 376.614C507.852 376.121 507.729 375.527 507.729 374.83V369.273H509.786V374.511C509.786 375.064 509.937 375.504 510.24 375.83C510.543 376.155 510.941 376.318 511.433 376.318C511.736 376.318 512.03 376.244 512.314 376.097C512.598 375.949 512.831 375.729 513.013 375.438C513.198 375.142 513.291 374.773 513.291 374.33ZM520.702 378.153C520.016 378.153 519.402 377.977 518.861 377.625C518.319 377.273 517.891 376.761 517.577 376.091C517.262 375.42 517.105 374.606 517.105 373.648C517.105 372.678 517.264 371.86 517.582 371.193C517.904 370.523 518.338 370.017 518.884 369.676C519.429 369.331 520.037 369.159 520.707 369.159C521.219 369.159 521.639 369.246 521.969 369.42C522.298 369.591 522.56 369.797 522.753 370.04C522.946 370.278 523.096 370.504 523.202 370.716H523.287V366.364H525.349V378H523.327V376.625H523.202C523.096 376.837 522.942 377.062 522.741 377.301C522.541 377.536 522.276 377.737 521.946 377.903C521.616 378.07 521.202 378.153 520.702 378.153ZM521.276 376.466C521.711 376.466 522.082 376.348 522.389 376.114C522.696 375.875 522.929 375.544 523.088 375.119C523.247 374.695 523.327 374.201 523.327 373.636C523.327 373.072 523.247 372.581 523.088 372.165C522.933 371.748 522.702 371.424 522.395 371.193C522.092 370.962 521.719 370.847 521.276 370.847C520.817 370.847 520.435 370.966 520.128 371.205C519.821 371.443 519.59 371.773 519.435 372.193C519.279 372.614 519.202 373.095 519.202 373.636C519.202 374.182 519.279 374.669 519.435 375.097C519.594 375.521 519.827 375.856 520.134 376.102C520.444 376.345 520.825 376.466 521.276 376.466ZM531.348 378.17C530.496 378.17 529.757 377.983 529.132 377.608C528.507 377.233 528.022 376.708 527.678 376.034C527.337 375.36 527.166 374.572 527.166 373.67C527.166 372.769 527.337 371.979 527.678 371.301C528.022 370.623 528.507 370.097 529.132 369.722C529.757 369.347 530.496 369.159 531.348 369.159C532.2 369.159 532.939 369.347 533.564 369.722C534.189 370.097 534.672 370.623 535.013 371.301C535.357 371.979 535.53 372.769 535.53 373.67C535.53 374.572 535.357 375.36 535.013 376.034C534.672 376.708 534.189 377.233 533.564 377.608C532.939 377.983 532.2 378.17 531.348 378.17ZM531.359 376.523C531.821 376.523 532.208 376.396 532.518 376.142C532.829 375.884 533.06 375.54 533.212 375.108C533.367 374.676 533.445 374.195 533.445 373.665C533.445 373.131 533.367 372.648 533.212 372.216C533.06 371.78 532.829 371.434 532.518 371.176C532.208 370.919 531.821 370.79 531.359 370.79C530.886 370.79 530.492 370.919 530.178 371.176C529.867 371.434 529.634 371.78 529.479 372.216C529.327 372.648 529.251 373.131 529.251 373.665C529.251 374.195 529.327 374.676 529.479 375.108C529.634 375.54 529.867 375.884 530.178 376.142C530.492 376.396 530.886 376.523 531.359 376.523ZM544.173 371.58L542.298 371.784C542.245 371.595 542.152 371.417 542.02 371.25C541.891 371.083 541.717 370.949 541.497 370.847C541.277 370.744 541.009 370.693 540.69 370.693C540.262 370.693 539.902 370.786 539.611 370.972C539.323 371.157 539.181 371.398 539.185 371.693C539.181 371.947 539.274 372.153 539.463 372.312C539.656 372.472 539.974 372.602 540.418 372.705L541.906 373.023C542.732 373.201 543.346 373.483 543.747 373.869C544.152 374.256 544.357 374.761 544.361 375.386C544.357 375.936 544.196 376.42 543.878 376.841C543.563 377.258 543.126 377.583 542.565 377.818C542.005 378.053 541.361 378.17 540.634 378.17C539.565 378.17 538.705 377.947 538.054 377.5C537.402 377.049 537.014 376.422 536.889 375.619L538.895 375.426C538.986 375.82 539.179 376.117 539.474 376.318C539.77 376.519 540.154 376.619 540.628 376.619C541.116 376.619 541.509 376.519 541.804 376.318C542.103 376.117 542.253 375.869 542.253 375.574C542.253 375.324 542.156 375.117 541.963 374.955C541.774 374.792 541.478 374.667 541.077 374.58L539.588 374.267C538.751 374.093 538.132 373.799 537.73 373.386C537.329 372.97 537.13 372.443 537.134 371.807C537.13 371.269 537.276 370.803 537.571 370.409C537.87 370.011 538.285 369.705 538.815 369.489C539.349 369.269 539.965 369.159 540.662 369.159C541.685 369.159 542.49 369.377 543.077 369.812C543.668 370.248 544.033 370.837 544.173 371.58Z" fill="black"/>
<path d="M259.929 105.112L242.289 112.137C235.897 100.984 220.771 99.1688 212.436 109.804C203.19 121.601 209.178 139.947 223.189 142.747C236.419 145.391 247.516 132.317 244.7 118.561L261.627 110.471C267.471 123.586 283.469 128.324 294.644 118.958L308.845 133.674C298.249 150.363 306.386 174.353 325.351 178.809C345.54 183.553 362.994 162.635 356.692 141.248C350.815 121.3 328.35 114.774 314.084 127.488L298.979 114.162C306.285 103.41 303.79 87.8716 293.722 80.3698L301.241 60.7064C312.036 63.1658 322.315 52.9702 320.398 40.6076C318.34 27.3392 303.763 21.4437 294.222 30.0207C285.237 38.0972 287.009 53.3507 296.931 59.0207L288.059 77.3458C272.128 71.9584 256.56 86.2286 259.929 105.112Z" fill="black"/>
<path d="M292.501 199.58L290.626 199.784C290.573 199.595 290.481 199.417 290.348 199.25C290.219 199.083 290.045 198.949 289.825 198.847C289.606 198.744 289.337 198.693 289.018 198.693C288.59 198.693 288.231 198.786 287.939 198.972C287.651 199.157 287.509 199.398 287.513 199.693C287.509 199.947 287.602 200.153 287.791 200.312C287.984 200.472 288.303 200.602 288.746 200.705L290.234 201.023C291.06 201.201 291.674 201.483 292.075 201.869C292.481 202.256 292.685 202.761 292.689 203.386C292.685 203.936 292.524 204.42 292.206 204.841C291.892 205.258 291.454 205.583 290.893 205.818C290.333 206.053 289.689 206.17 288.962 206.17C287.893 206.17 287.034 205.947 286.382 205.5C285.731 205.049 285.342 204.422 285.217 203.619L287.223 203.426C287.314 203.82 287.507 204.117 287.803 204.318C288.098 204.519 288.482 204.619 288.956 204.619C289.445 204.619 289.837 204.519 290.132 204.318C290.431 204.117 290.581 203.869 290.581 203.574C290.581 203.324 290.484 203.117 290.291 202.955C290.102 202.792 289.806 202.667 289.405 202.58L287.916 202.267C287.079 202.093 286.46 201.799 286.058 201.386C285.657 200.97 285.458 200.443 285.462 199.807C285.458 199.269 285.604 198.803 285.899 198.409C286.198 198.011 286.613 197.705 287.143 197.489C287.678 197.269 288.293 197.159 288.99 197.159C290.013 197.159 290.818 197.377 291.405 197.812C291.996 198.248 292.361 198.837 292.501 199.58ZM298.743 197.273V198.864H293.726V197.273H298.743ZM294.964 195.182H297.021V203.375C297.021 203.652 297.063 203.864 297.146 204.011C297.233 204.155 297.347 204.254 297.487 204.307C297.627 204.36 297.783 204.386 297.953 204.386C298.082 204.386 298.199 204.377 298.305 204.358C298.415 204.339 298.499 204.322 298.555 204.307L298.902 205.915C298.792 205.953 298.635 205.994 298.43 206.04C298.23 206.085 297.983 206.112 297.692 206.119C297.177 206.134 296.713 206.057 296.3 205.886C295.887 205.712 295.559 205.443 295.317 205.08C295.078 204.716 294.961 204.261 294.964 203.716V195.182ZM300.463 206V197.273H302.457V198.727H302.548C302.707 198.223 302.98 197.835 303.366 197.562C303.757 197.286 304.202 197.148 304.702 197.148C304.815 197.148 304.942 197.153 305.082 197.165C305.226 197.172 305.346 197.186 305.44 197.205V199.097C305.353 199.066 305.215 199.04 305.026 199.017C304.84 198.991 304.66 198.977 304.486 198.977C304.111 198.977 303.774 199.059 303.474 199.222C303.179 199.381 302.946 199.602 302.776 199.886C302.605 200.17 302.52 200.498 302.52 200.869V206H300.463ZM312.369 202.33V197.273H314.426V206H312.432V204.449H312.341C312.144 204.937 311.82 205.337 311.369 205.648C310.922 205.958 310.371 206.114 309.716 206.114C309.144 206.114 308.638 205.987 308.199 205.733C307.763 205.475 307.422 205.102 307.176 204.614C306.93 204.121 306.807 203.527 306.807 202.83V197.273H308.864V202.511C308.864 203.064 309.015 203.504 309.318 203.83C309.621 204.155 310.019 204.318 310.511 204.318C310.814 204.318 311.108 204.244 311.392 204.097C311.676 203.949 311.909 203.729 312.091 203.438C312.277 203.142 312.369 202.773 312.369 202.33ZM320.348 206.17C319.477 206.17 318.729 205.979 318.104 205.597C317.482 205.214 317.003 204.686 316.666 204.011C316.333 203.333 316.166 202.553 316.166 201.67C316.166 200.784 316.337 200.002 316.678 199.324C317.018 198.642 317.5 198.112 318.121 197.733C318.746 197.35 319.484 197.159 320.337 197.159C321.045 197.159 321.672 197.29 322.217 197.551C322.767 197.809 323.204 198.174 323.53 198.648C323.856 199.117 324.041 199.667 324.087 200.295H322.121C322.041 199.875 321.852 199.525 321.553 199.244C321.257 198.96 320.861 198.818 320.365 198.818C319.945 198.818 319.575 198.932 319.257 199.159C318.939 199.383 318.691 199.705 318.513 200.125C318.339 200.545 318.251 201.049 318.251 201.636C318.251 202.231 318.339 202.742 318.513 203.17C318.687 203.595 318.931 203.922 319.246 204.153C319.564 204.381 319.937 204.494 320.365 204.494C320.668 204.494 320.939 204.437 321.178 204.324C321.42 204.206 321.623 204.038 321.786 203.818C321.948 203.598 322.06 203.331 322.121 203.017H324.087C324.037 203.634 323.856 204.182 323.541 204.659C323.227 205.133 322.799 205.504 322.257 205.773C321.715 206.038 321.079 206.17 320.348 206.17ZM330.134 197.273V198.864H325.116V197.273H330.134ZM326.355 195.182H328.412V203.375C328.412 203.652 328.454 203.864 328.537 204.011C328.624 204.155 328.738 204.254 328.878 204.307C329.018 204.36 329.173 204.386 329.344 204.386C329.473 204.386 329.59 204.377 329.696 204.358C329.806 204.339 329.889 204.322 329.946 204.307L330.293 205.915C330.183 205.953 330.026 205.994 329.821 206.04C329.62 206.085 329.374 206.112 329.082 206.119C328.567 206.134 328.103 206.057 327.69 205.886C327.277 205.712 326.95 205.443 326.707 205.08C326.469 204.716 326.351 204.261 326.355 203.716V195.182ZM337.416 202.33V197.273H339.473V206H337.479V204.449H337.388C337.191 204.937 336.867 205.337 336.416 205.648C335.969 205.958 335.418 206.114 334.763 206.114C334.191 206.114 333.685 205.987 333.246 205.733C332.81 205.475 332.469 205.102 332.223 204.614C331.977 204.121 331.854 203.527 331.854 202.83V197.273H333.911V202.511C333.911 203.064 334.062 203.504 334.365 203.83C334.668 204.155 335.066 204.318 335.558 204.318C335.861 204.318 336.155 204.244 336.439 204.097C336.723 203.949 336.956 203.729 337.138 203.438C337.323 203.142 337.416 202.773 337.416 202.33ZM341.588 206V197.273H343.582V198.727H343.673C343.832 198.223 344.105 197.835 344.491 197.562C344.882 197.286 345.327 197.148 345.827 197.148C345.94 197.148 346.067 197.153 346.207 197.165C346.351 197.172 346.471 197.186 346.565 197.205V199.097C346.478 199.066 346.34 199.04 346.151 199.017C345.965 198.991 345.785 198.977 345.611 198.977C345.236 198.977 344.899 199.059 344.599 199.222C344.304 199.381 344.071 199.602 343.901 199.886C343.73 200.17 343.645 200.498 343.645 200.869V206H341.588ZM351.436 206.17C350.561 206.17 349.805 205.989 349.169 205.625C348.536 205.258 348.05 204.739 347.709 204.068C347.368 203.394 347.197 202.6 347.197 201.688C347.197 200.79 347.368 200.002 347.709 199.324C348.054 198.642 348.535 198.112 349.152 197.733C349.769 197.35 350.495 197.159 351.328 197.159C351.866 197.159 352.374 197.246 352.851 197.42C353.332 197.591 353.756 197.856 354.124 198.216C354.495 198.576 354.786 199.034 354.999 199.591C355.211 200.144 355.317 200.803 355.317 201.568V202.199H348.163V200.812H353.345C353.341 200.419 353.256 200.068 353.089 199.761C352.923 199.451 352.69 199.206 352.391 199.028C352.095 198.85 351.75 198.761 351.357 198.761C350.936 198.761 350.567 198.864 350.249 199.068C349.93 199.269 349.682 199.534 349.504 199.864C349.33 200.189 349.241 200.547 349.237 200.938V202.148C349.237 202.655 349.33 203.091 349.516 203.455C349.701 203.814 349.961 204.091 350.294 204.284C350.627 204.473 351.018 204.568 351.464 204.568C351.764 204.568 352.035 204.527 352.277 204.443C352.519 204.356 352.73 204.229 352.908 204.062C353.086 203.896 353.22 203.689 353.311 203.443L355.232 203.659C355.11 204.167 354.879 204.61 354.538 204.989C354.201 205.364 353.769 205.655 353.243 205.864C352.716 206.068 352.114 206.17 351.436 206.17Z" fill="black"/>
<path d="M389.332 512.17C388.461 512.17 387.713 511.979 387.088 511.597C386.467 511.214 385.988 510.686 385.651 510.011C385.317 509.333 385.151 508.553 385.151 507.67C385.151 506.784 385.321 506.002 385.662 505.324C386.003 504.642 386.484 504.112 387.105 503.733C387.73 503.35 388.469 503.159 389.321 503.159C390.029 503.159 390.656 503.29 391.202 503.551C391.751 503.809 392.188 504.174 392.514 504.648C392.84 505.117 393.026 505.667 393.071 506.295H391.105C391.026 505.875 390.836 505.525 390.537 505.244C390.241 504.96 389.846 504.818 389.349 504.818C388.929 504.818 388.56 504.932 388.241 505.159C387.923 505.383 387.675 505.705 387.497 506.125C387.323 506.545 387.236 507.049 387.236 507.636C387.236 508.231 387.323 508.742 387.497 509.17C387.671 509.595 387.916 509.922 388.23 510.153C388.548 510.381 388.921 510.494 389.349 510.494C389.652 510.494 389.923 510.437 390.162 510.324C390.404 510.206 390.607 510.038 390.77 509.818C390.933 509.598 391.045 509.331 391.105 509.017H393.071C393.022 509.634 392.84 510.182 392.526 510.659C392.211 511.133 391.783 511.504 391.241 511.773C390.7 512.038 390.063 512.17 389.332 512.17ZM398.567 512.17C397.714 512.17 396.976 511.983 396.351 511.608C395.726 511.233 395.241 510.708 394.896 510.034C394.555 509.36 394.385 508.572 394.385 507.67C394.385 506.769 394.555 505.979 394.896 505.301C395.241 504.623 395.726 504.097 396.351 503.722C396.976 503.347 397.714 503.159 398.567 503.159C399.419 503.159 400.158 503.347 400.783 503.722C401.408 504.097 401.891 504.623 402.232 505.301C402.576 505.979 402.749 506.769 402.749 507.67C402.749 508.572 402.576 509.36 402.232 510.034C401.891 510.708 401.408 511.233 400.783 511.608C400.158 511.983 399.419 512.17 398.567 512.17ZM398.578 510.523C399.04 510.523 399.427 510.396 399.737 510.142C400.048 509.884 400.279 509.54 400.43 509.108C400.586 508.676 400.663 508.195 400.663 507.665C400.663 507.131 400.586 506.648 400.43 506.216C400.279 505.78 400.048 505.434 399.737 505.176C399.427 504.919 399.04 504.79 398.578 504.79C398.105 504.79 397.711 504.919 397.396 505.176C397.086 505.434 396.853 505.78 396.697 506.216C396.546 506.648 396.47 507.131 396.47 507.665C396.47 508.195 396.546 508.676 396.697 509.108C396.853 509.54 397.086 509.884 397.396 510.142C397.711 510.396 398.105 510.523 398.578 510.523ZM407.733 512.153C407.047 512.153 406.434 511.977 405.892 511.625C405.35 511.273 404.922 510.761 404.608 510.091C404.294 509.42 404.136 508.606 404.136 507.648C404.136 506.678 404.295 505.86 404.614 505.193C404.936 504.523 405.369 504.017 405.915 503.676C406.46 503.331 407.068 503.159 407.739 503.159C408.25 503.159 408.67 503.246 409 503.42C409.33 503.591 409.591 503.797 409.784 504.04C409.977 504.278 410.127 504.504 410.233 504.716H410.318V500.364H412.381V512H410.358V510.625H410.233C410.127 510.837 409.973 511.062 409.773 511.301C409.572 511.536 409.307 511.737 408.977 511.903C408.648 512.07 408.233 512.153 407.733 512.153ZM408.307 510.466C408.742 510.466 409.114 510.348 409.42 510.114C409.727 509.875 409.96 509.544 410.119 509.119C410.278 508.695 410.358 508.201 410.358 507.636C410.358 507.072 410.278 506.581 410.119 506.165C409.964 505.748 409.733 505.424 409.426 505.193C409.123 504.962 408.75 504.847 408.307 504.847C407.848 504.847 407.466 504.966 407.159 505.205C406.852 505.443 406.621 505.773 406.466 506.193C406.311 506.614 406.233 507.095 406.233 507.636C406.233 508.182 406.311 508.669 406.466 509.097C406.625 509.521 406.858 509.856 407.165 510.102C407.475 510.345 407.856 510.466 408.307 510.466ZM418.436 512.17C417.561 512.17 416.805 511.989 416.169 511.625C415.536 511.258 415.05 510.739 414.709 510.068C414.368 509.394 414.197 508.6 414.197 507.688C414.197 506.79 414.368 506.002 414.709 505.324C415.054 504.642 415.535 504.112 416.152 503.733C416.769 503.35 417.495 503.159 418.328 503.159C418.866 503.159 419.374 503.246 419.851 503.42C420.332 503.591 420.756 503.856 421.124 504.216C421.495 504.576 421.786 505.034 421.999 505.591C422.211 506.144 422.317 506.803 422.317 507.568V508.199H415.163V506.812H420.345C420.341 506.419 420.256 506.068 420.089 505.761C419.923 505.451 419.69 505.206 419.391 505.028C419.095 504.85 418.75 504.761 418.357 504.761C417.936 504.761 417.567 504.864 417.249 505.068C416.93 505.269 416.682 505.534 416.504 505.864C416.33 506.189 416.241 506.547 416.237 506.938V508.148C416.237 508.655 416.33 509.091 416.516 509.455C416.701 509.814 416.961 510.091 417.294 510.284C417.627 510.473 418.018 510.568 418.464 510.568C418.764 510.568 419.035 510.527 419.277 510.443C419.519 510.356 419.73 510.229 419.908 510.062C420.086 509.896 420.22 509.689 420.311 509.443L422.232 509.659C422.11 510.167 421.879 510.61 421.538 510.989C421.201 511.364 420.769 511.655 420.243 511.864C419.716 512.068 419.114 512.17 418.436 512.17Z" fill="black"/>
<path d="M453.989 591.17C453.117 591.17 452.369 590.979 451.744 590.597C451.123 590.214 450.644 589.686 450.307 589.011C449.973 588.333 449.807 587.553 449.807 586.67C449.807 585.784 449.977 585.002 450.318 584.324C450.659 583.642 451.14 583.112 451.761 582.733C452.386 582.35 453.125 582.159 453.977 582.159C454.686 582.159 455.313 582.29 455.858 582.551C456.407 582.809 456.845 583.174 457.17 583.648C457.496 584.117 457.682 584.667 457.727 585.295H455.761C455.682 584.875 455.492 584.525 455.193 584.244C454.898 583.96 454.502 583.818 454.006 583.818C453.585 583.818 453.216 583.932 452.898 584.159C452.58 584.383 452.331 584.705 452.153 585.125C451.979 585.545 451.892 586.049 451.892 586.636C451.892 587.231 451.979 587.742 452.153 588.17C452.328 588.595 452.572 588.922 452.886 589.153C453.205 589.381 453.578 589.494 454.006 589.494C454.309 589.494 454.58 589.437 454.818 589.324C455.061 589.206 455.263 589.038 455.426 588.818C455.589 588.598 455.701 588.331 455.761 588.017H457.727C457.678 588.634 457.496 589.182 457.182 589.659C456.867 590.133 456.439 590.504 455.898 590.773C455.356 591.038 454.72 591.17 453.989 591.17ZM463.223 591.17C462.371 591.17 461.632 590.983 461.007 590.608C460.382 590.233 459.897 589.708 459.553 589.034C459.212 588.36 459.041 587.572 459.041 586.67C459.041 585.769 459.212 584.979 459.553 584.301C459.897 583.623 460.382 583.097 461.007 582.722C461.632 582.347 462.371 582.159 463.223 582.159C464.075 582.159 464.814 582.347 465.439 582.722C466.064 583.097 466.547 583.623 466.888 584.301C467.232 584.979 467.405 585.769 467.405 586.67C467.405 587.572 467.232 588.36 466.888 589.034C466.547 589.708 466.064 590.233 465.439 590.608C464.814 590.983 464.075 591.17 463.223 591.17ZM463.234 589.523C463.696 589.523 464.083 589.396 464.393 589.142C464.704 588.884 464.935 588.54 465.087 588.108C465.242 587.676 465.32 587.195 465.32 586.665C465.32 586.131 465.242 585.648 465.087 585.216C464.935 584.78 464.704 584.434 464.393 584.176C464.083 583.919 463.696 583.79 463.234 583.79C462.761 583.79 462.367 583.919 462.053 584.176C461.742 584.434 461.509 584.78 461.354 585.216C461.202 585.648 461.126 586.131 461.126 586.665C461.126 587.195 461.202 587.676 461.354 588.108C461.509 588.54 461.742 588.884 462.053 589.142C462.367 589.396 462.761 589.523 463.234 589.523ZM469.151 591V582.273H471.116V583.756H471.219C471.401 583.256 471.702 582.866 472.122 582.585C472.543 582.301 473.045 582.159 473.628 582.159C474.219 582.159 474.717 582.303 475.122 582.591C475.531 582.875 475.819 583.263 475.986 583.756H476.077C476.27 583.271 476.596 582.884 477.054 582.597C477.516 582.305 478.063 582.159 478.696 582.159C479.499 582.159 480.154 582.413 480.662 582.92C481.17 583.428 481.423 584.169 481.423 585.142V591H479.361V585.46C479.361 584.919 479.217 584.523 478.929 584.273C478.641 584.019 478.289 583.892 477.872 583.892C477.376 583.892 476.988 584.047 476.707 584.358C476.431 584.665 476.293 585.064 476.293 585.557V591H474.276V585.375C474.276 584.924 474.139 584.564 473.866 584.295C473.598 584.027 473.245 583.892 472.81 583.892C472.514 583.892 472.245 583.968 472.003 584.119C471.76 584.267 471.567 584.477 471.423 584.75C471.279 585.019 471.207 585.333 471.207 585.693V591H469.151ZM483.51 594.273V582.273H485.533V583.716H485.652C485.758 583.504 485.908 583.278 486.101 583.04C486.294 582.797 486.555 582.591 486.885 582.42C487.214 582.246 487.635 582.159 488.146 582.159C488.821 582.159 489.429 582.331 489.97 582.676C490.516 583.017 490.947 583.523 491.266 584.193C491.588 584.86 491.749 585.678 491.749 586.648C491.749 587.606 491.591 588.42 491.277 589.091C490.963 589.761 490.535 590.273 489.993 590.625C489.451 590.977 488.838 591.153 488.152 591.153C487.652 591.153 487.237 591.07 486.908 590.903C486.578 590.737 486.313 590.536 486.112 590.301C485.915 590.062 485.762 589.837 485.652 589.625H485.567V594.273H483.51ZM485.527 586.636C485.527 587.201 485.607 587.695 485.766 588.119C485.929 588.544 486.161 588.875 486.464 589.114C486.771 589.348 487.143 589.466 487.578 589.466C488.033 589.466 488.413 589.345 488.72 589.102C489.027 588.856 489.258 588.521 489.413 588.097C489.572 587.669 489.652 587.182 489.652 586.636C489.652 586.095 489.574 585.614 489.419 585.193C489.264 584.773 489.033 584.443 488.726 584.205C488.419 583.966 488.036 583.847 487.578 583.847C487.139 583.847 486.766 583.962 486.459 584.193C486.152 584.424 485.919 584.748 485.76 585.165C485.605 585.581 485.527 586.072 485.527 586.636ZM499.072 587.33V582.273H501.129V591H499.135V589.449H499.044C498.847 589.937 498.523 590.337 498.072 590.648C497.625 590.958 497.074 591.114 496.419 591.114C495.847 591.114 495.341 590.987 494.902 590.733C494.466 590.475 494.125 590.102 493.879 589.614C493.633 589.121 493.51 588.527 493.51 587.83V582.273H495.567V587.511C495.567 588.064 495.718 588.504 496.021 588.83C496.324 589.155 496.722 589.318 497.214 589.318C497.518 589.318 497.811 589.244 498.095 589.097C498.379 588.949 498.612 588.729 498.794 588.438C498.98 588.142 499.072 587.773 499.072 587.33ZM507.602 582.273V583.864H502.585V582.273H507.602ZM503.824 580.182H505.881V588.375C505.881 588.652 505.922 588.864 506.006 589.011C506.093 589.155 506.206 589.254 506.347 589.307C506.487 589.36 506.642 589.386 506.812 589.386C506.941 589.386 507.059 589.377 507.165 589.358C507.275 589.339 507.358 589.322 507.415 589.307L507.761 590.915C507.652 590.953 507.494 590.994 507.29 591.04C507.089 591.085 506.843 591.112 506.551 591.119C506.036 591.134 505.572 591.057 505.159 590.886C504.746 590.712 504.419 590.443 504.176 590.08C503.938 589.716 503.82 589.261 503.824 588.716V580.182ZM513.092 591.17C512.217 591.17 511.462 590.989 510.825 590.625C510.193 590.258 509.706 589.739 509.365 589.068C509.024 588.394 508.854 587.6 508.854 586.688C508.854 585.79 509.024 585.002 509.365 584.324C509.71 583.642 510.191 583.112 510.808 582.733C511.426 582.35 512.151 582.159 512.984 582.159C513.522 582.159 514.03 582.246 514.507 582.42C514.988 582.591 515.412 582.856 515.78 583.216C516.151 583.576 516.443 584.034 516.655 584.591C516.867 585.144 516.973 585.803 516.973 586.568V587.199H509.82V585.812H515.001C514.998 585.419 514.912 585.068 514.746 584.761C514.579 584.451 514.346 584.206 514.047 584.028C513.751 583.85 513.407 583.761 513.013 583.761C512.592 583.761 512.223 583.864 511.905 584.068C511.587 584.269 511.339 584.534 511.161 584.864C510.986 585.189 510.897 585.547 510.893 585.938V587.148C510.893 587.655 510.986 588.091 511.172 588.455C511.357 588.814 511.617 589.091 511.95 589.284C512.284 589.473 512.674 589.568 513.121 589.568C513.42 589.568 513.691 589.527 513.933 589.443C514.176 589.356 514.386 589.229 514.564 589.062C514.742 588.896 514.876 588.689 514.967 588.443L516.888 588.659C516.767 589.167 516.536 589.61 516.195 589.989C515.857 590.364 515.426 590.655 514.899 590.864C514.373 591.068 513.77 591.17 513.092 591.17ZM518.713 591V582.273H520.707V583.727H520.798C520.957 583.223 521.23 582.835 521.616 582.562C522.007 582.286 522.452 582.148 522.952 582.148C523.065 582.148 523.192 582.153 523.332 582.165C523.476 582.172 523.596 582.186 523.69 582.205V584.097C523.603 584.066 523.465 584.04 523.276 584.017C523.09 583.991 522.91 583.977 522.736 583.977C522.361 583.977 522.024 584.059 521.724 584.222C521.429 584.381 521.196 584.602 521.026 584.886C520.855 585.17 520.77 585.498 520.77 585.869V591H518.713Z" fill="black"/>
<path d="M518.25 178.861C513.277 178.861 508.508 177.046 504.992 173.814C501.475 170.582 499.5 166.199 499.5 161.629C499.5 157.058 501.475 152.675 504.992 149.443C508.508 146.212 513.277 144.396 518.25 144.396C523.223 144.396 527.992 146.212 531.508 149.443C535.025 152.675 537 157.058 537 161.629C537 166.199 535.025 170.582 531.508 173.814C527.992 177.046 523.223 178.861 518.25 178.861ZM462 178.861C457.027 178.861 452.258 177.046 448.742 173.814C445.225 170.582 443.25 166.199 443.25 161.629C443.25 157.058 445.225 152.675 448.742 149.443C452.258 146.212 457.027 144.396 462 144.396C466.973 144.396 471.742 146.212 475.258 149.443C478.775 152.675 480.75 157.058 480.75 161.629C480.75 166.199 478.775 170.582 475.258 173.814C471.742 177.046 466.973 178.861 462 178.861ZM405.75 178.861C400.777 178.861 396.008 177.046 392.492 173.814C388.975 170.582 387 166.199 387 161.629C387 157.058 388.975 152.675 392.492 149.443C396.008 146.212 400.777 144.396 405.75 144.396C410.723 144.396 415.492 146.212 419.008 149.443C422.525 152.675 424.5 157.058 424.5 161.629C424.5 166.199 422.525 170.582 419.008 173.814C415.492 177.046 410.723 178.861 405.75 178.861ZM518.25 127.163C513.277 127.163 508.508 125.348 504.992 122.116C501.475 118.884 499.5 114.501 499.5 109.931C499.5 105.36 501.475 100.977 504.992 97.7453C508.508 94.5136 513.277 92.698 518.25 92.698C523.223 92.698 527.992 94.5136 531.508 97.7453C535.025 100.977 537 105.36 537 109.931C537 114.501 535.025 118.884 531.508 122.116C527.992 125.348 523.223 127.163 518.25 127.163ZM462 127.163C457.027 127.163 452.258 125.348 448.742 122.116C445.225 118.884 443.25 114.501 443.25 109.931C443.25 105.36 445.225 100.977 448.742 97.7453C452.258 94.5136 457.027 92.698 462 92.698C466.973 92.698 471.742 94.5136 475.258 97.7453C478.775 100.977 480.75 105.36 480.75 109.931C480.75 114.501 478.775 118.884 475.258 122.116C471.742 125.348 466.973 127.163 462 127.163ZM405.75 127.163C400.777 127.163 396.008 125.348 392.492 122.116C388.975 118.884 387 114.501 387 109.931C387 105.36 388.975 100.977 392.492 97.7453C396.008 94.5136 400.777 92.698 405.75 92.698C410.723 92.698 415.492 94.5136 419.008 97.7453C422.525 100.977 424.5 105.36 424.5 109.931C424.5 114.501 422.525 118.884 419.008 122.116C415.492 125.348 410.723 127.163 405.75 127.163ZM518.25 75.4653C513.277 75.4653 508.508 73.6497 504.992 70.418C501.475 67.1862 499.5 62.803 499.5 58.2327C499.5 53.6623 501.475 49.2791 504.992 46.0473C508.508 42.8156 513.277 41 518.25 41C523.223 41 527.992 42.8156 531.508 46.0473C535.025 49.2791 537 53.6623 537 58.2327C537 62.803 535.025 67.1862 531.508 70.418C527.992 73.6497 523.223 75.4653 518.25 75.4653ZM462 75.4653C457.027 75.4653 452.258 73.6497 448.742 70.418C445.225 67.1862 443.25 62.803 443.25 58.2327C443.25 53.6623 445.225 49.2791 448.742 46.0473C452.258 42.8156 457.027 41 462 41C466.973 41 471.742 42.8156 475.258 46.0473C478.775 49.2791 480.75 53.6623 480.75 58.2327C480.75 62.803 478.775 67.1862 475.258 70.418C471.742 73.6497 466.973 75.4653 462 75.4653ZM405.75 75.4653C400.777 75.4653 396.008 73.6497 392.492 70.418C388.975 67.1862 387 62.803 387 58.2327C387 53.6623 388.975 49.2791 392.492 46.0473C396.008 42.8156 400.777 41 405.75 41C410.723 41 415.492 42.8156 419.008 46.0473C422.525 49.2791 424.5 53.6623 424.5 58.2327C424.5 62.803 422.525 67.1862 419.008 70.418C415.492 73.6497 410.723 75.4653 405.75 75.4653Z" fill="black"/>
<path d="M480.432 204.261L480.426 201.778H480.756L483.892 198.273H486.295L482.438 202.568H482.011L480.432 204.261ZM478.557 207V195.364H480.614V207H478.557ZM484.034 207L481.193 203.028L482.58 201.58L486.494 207H484.034ZM487.666 210.273V198.273H489.689V199.716H489.808C489.914 199.504 490.064 199.278 490.257 199.04C490.45 198.797 490.712 198.591 491.041 198.42C491.371 198.246 491.791 198.159 492.303 198.159C492.977 198.159 493.585 198.331 494.126 198.676C494.672 199.017 495.104 199.523 495.422 200.193C495.744 200.86 495.905 201.678 495.905 202.648C495.905 203.606 495.748 204.42 495.433 205.091C495.119 205.761 494.691 206.273 494.149 206.625C493.607 206.977 492.994 207.153 492.308 207.153C491.808 207.153 491.393 207.07 491.064 206.903C490.734 206.737 490.469 206.536 490.268 206.301C490.071 206.062 489.918 205.837 489.808 205.625H489.723V210.273H487.666ZM489.683 202.636C489.683 203.201 489.763 203.695 489.922 204.119C490.085 204.544 490.318 204.875 490.621 205.114C490.928 205.348 491.299 205.466 491.734 205.466C492.189 205.466 492.57 205.345 492.876 205.102C493.183 204.856 493.414 204.521 493.57 204.097C493.729 203.669 493.808 203.182 493.808 202.636C493.808 202.095 493.731 201.614 493.575 201.193C493.42 200.773 493.189 200.443 492.882 200.205C492.575 199.966 492.193 199.847 491.734 199.847C491.295 199.847 490.922 199.962 490.615 200.193C490.308 200.424 490.075 200.748 489.916 201.165C489.761 201.581 489.683 202.072 489.683 202.636ZM501.473 207.17C500.621 207.17 499.882 206.983 499.257 206.608C498.632 206.233 498.147 205.708 497.803 205.034C497.462 204.36 497.291 203.572 497.291 202.67C497.291 201.769 497.462 200.979 497.803 200.301C498.147 199.623 498.632 199.097 499.257 198.722C499.882 198.347 500.621 198.159 501.473 198.159C502.325 198.159 503.064 198.347 503.689 198.722C504.314 199.097 504.797 199.623 505.138 200.301C505.482 200.979 505.655 201.769 505.655 202.67C505.655 203.572 505.482 204.36 505.138 205.034C504.797 205.708 504.314 206.233 503.689 206.608C503.064 206.983 502.325 207.17 501.473 207.17ZM501.484 205.523C501.946 205.523 502.333 205.396 502.643 205.142C502.954 204.884 503.185 204.54 503.337 204.108C503.492 203.676 503.57 203.195 503.57 202.665C503.57 202.131 503.492 201.648 503.337 201.216C503.185 200.78 502.954 200.434 502.643 200.176C502.333 199.919 501.946 199.79 501.484 199.79C501.011 199.79 500.617 199.919 500.303 200.176C499.992 200.434 499.759 200.78 499.604 201.216C499.452 201.648 499.376 202.131 499.376 202.665C499.376 203.195 499.452 203.676 499.604 204.108C499.759 204.54 499.992 204.884 500.303 205.142C500.617 205.396 501.011 205.523 501.484 205.523ZM507.401 207V198.273H509.457V207H507.401ZM508.435 197.034C508.109 197.034 507.829 196.926 507.594 196.71C507.359 196.491 507.241 196.227 507.241 195.92C507.241 195.61 507.359 195.347 507.594 195.131C507.829 194.911 508.109 194.801 508.435 194.801C508.764 194.801 509.045 194.911 509.276 195.131C509.51 195.347 509.628 195.61 509.628 195.92C509.628 196.227 509.51 196.491 509.276 196.71C509.045 196.926 508.764 197.034 508.435 197.034ZM513.629 201.886V207H511.572V198.273H513.538V199.756H513.641C513.841 199.267 514.161 198.879 514.601 198.591C515.044 198.303 515.591 198.159 516.243 198.159C516.845 198.159 517.37 198.288 517.817 198.545C518.268 198.803 518.616 199.176 518.862 199.665C519.112 200.153 519.235 200.746 519.232 201.443V207H517.175V201.761C517.175 201.178 517.023 200.722 516.72 200.392C516.421 200.062 516.006 199.898 515.476 199.898C515.116 199.898 514.796 199.977 514.516 200.136C514.239 200.292 514.021 200.517 513.862 200.812C513.707 201.108 513.629 201.466 513.629 201.886ZM525.68 198.273V199.864H520.663V198.273H525.68ZM521.902 196.182H523.959V204.375C523.959 204.652 524 204.864 524.084 205.011C524.171 205.155 524.285 205.254 524.425 205.307C524.565 205.36 524.72 205.386 524.891 205.386C525.019 205.386 525.137 205.377 525.243 205.358C525.353 205.339 525.436 205.322 525.493 205.307L525.839 206.915C525.73 206.953 525.572 206.994 525.368 207.04C525.167 207.085 524.921 207.112 524.629 207.119C524.114 207.134 523.65 207.057 523.237 206.886C522.824 206.712 522.497 206.443 522.254 206.08C522.016 205.716 521.898 205.261 521.902 204.716V196.182ZM534.173 200.58L532.298 200.784C532.245 200.595 532.152 200.417 532.02 200.25C531.891 200.083 531.717 199.949 531.497 199.847C531.277 199.744 531.009 199.693 530.69 199.693C530.262 199.693 529.902 199.786 529.611 199.972C529.323 200.157 529.181 200.398 529.185 200.693C529.181 200.947 529.274 201.153 529.463 201.312C529.656 201.472 529.974 201.602 530.418 201.705L531.906 202.023C532.732 202.201 533.346 202.483 533.747 202.869C534.152 203.256 534.357 203.761 534.361 204.386C534.357 204.936 534.196 205.42 533.878 205.841C533.563 206.258 533.126 206.583 532.565 206.818C532.005 207.053 531.361 207.17 530.634 207.17C529.565 207.17 528.705 206.947 528.054 206.5C527.402 206.049 527.014 205.422 526.889 204.619L528.895 204.426C528.986 204.82 529.179 205.117 529.474 205.318C529.77 205.519 530.154 205.619 530.628 205.619C531.116 205.619 531.509 205.519 531.804 205.318C532.103 205.117 532.253 204.869 532.253 204.574C532.253 204.324 532.156 204.117 531.963 203.955C531.774 203.792 531.478 203.667 531.077 203.58L529.588 203.267C528.751 203.093 528.132 202.799 527.73 202.386C527.329 201.97 527.13 201.443 527.134 200.807C527.13 200.269 527.276 199.803 527.571 199.409C527.87 199.011 528.285 198.705 528.815 198.489C529.349 198.269 529.965 198.159 530.662 198.159C531.685 198.159 532.49 198.377 533.077 198.812C533.668 199.248 534.033 199.837 534.173 200.58Z" fill="black"/>
<path d="M621.669 122.387C620 122.387 618.369 122.882 616.981 123.809C615.594 124.737 614.512 126.054 613.874 127.596C613.235 129.138 613.068 130.834 613.393 132.471C613.719 134.108 614.523 135.611 615.703 136.791C616.883 137.971 618.386 138.775 620.023 139.1C621.659 139.426 623.356 139.259 624.898 138.62C626.439 137.982 627.757 136.9 628.684 135.513C629.611 134.125 630.106 132.494 630.106 130.825C630.108 129.716 629.891 128.619 629.467 127.594C629.044 126.57 628.422 125.639 627.639 124.855C626.855 124.071 625.924 123.45 624.9 123.026C623.875 122.603 622.777 122.386 621.669 122.387V122.387Z" fill="black"/>
<path d="M643.5 46.5625H593.5C590.194 46.5741 587.028 47.8968 584.696 50.2402C582.364 52.5837 581.058 55.7566 581.063 59.0625L581 159.062C580.995 162.368 582.302 165.541 584.634 167.885C586.965 170.228 590.132 171.551 593.437 171.562H668.5C671.812 171.553 674.986 170.232 677.328 167.89C679.67 165.548 680.99 162.375 681 159.062V84.0625L643.5 46.5625ZM648.894 140.05L643.269 149.781C643.092 150.068 642.823 150.285 642.506 150.398C642.189 150.511 641.843 150.511 641.525 150.4L634.494 147.587C633.047 148.708 631.458 149.633 629.769 150.338L628.706 157.769C628.645 158.099 628.471 158.398 628.213 158.614C627.955 158.829 627.63 158.948 627.294 158.95H616.044C615.705 158.955 615.377 158.838 615.118 158.62C614.86 158.402 614.689 158.097 614.637 157.762L613.575 150.344C611.855 149.66 610.242 148.732 608.787 147.587L601.812 150.4C601.495 150.521 601.145 150.524 600.825 150.409C600.506 150.295 600.237 150.07 600.069 149.775L594.444 140.05C594.287 139.756 594.235 139.418 594.296 139.091C594.357 138.763 594.528 138.467 594.781 138.25L600.744 133.581C600.519 131.751 600.519 129.899 600.744 128.069L594.781 123.4C594.517 123.191 594.337 122.894 594.275 122.563C594.213 122.232 594.273 121.89 594.444 121.6L600.069 111.869C600.245 111.58 600.514 111.36 600.833 111.246C601.152 111.132 601.5 111.131 601.819 111.244L608.787 114.056C610.262 112.947 611.868 112.023 613.569 111.306L614.637 103.881C614.697 103.551 614.87 103.251 615.127 103.034C615.384 102.818 615.708 102.697 616.044 102.694H627.294C627.626 102.69 627.947 102.809 628.197 103.028C628.446 103.248 628.605 103.552 628.644 103.881L629.712 111.306C631.43 111.988 633.04 112.915 634.494 114.056L641.469 111.244C641.787 111.121 642.139 111.117 642.46 111.232C642.781 111.346 643.05 111.572 643.219 111.869L648.844 121.6C649 121.894 649.051 122.233 648.989 122.561C648.926 122.888 648.754 123.184 648.5 123.4L642.537 128.069C642.698 128.976 642.773 129.897 642.762 130.819C642.746 131.743 642.671 132.666 642.537 133.581L648.556 138.25C648.809 138.467 648.98 138.763 649.042 139.091C649.103 139.418 649.051 139.756 648.894 140.05V140.05ZM637.25 90.3125V55.9375L671.625 90.3125H637.25Z" fill="black"/>
<path d="M601.057 210.273V198.273H603.08V199.716H603.199C603.305 199.504 603.455 199.278 603.648 199.04C603.841 198.797 604.102 198.591 604.432 198.42C604.761 198.246 605.182 198.159 605.693 198.159C606.367 198.159 606.975 198.331 607.517 198.676C608.063 199.017 608.494 199.523 608.812 200.193C609.134 200.86 609.295 201.678 609.295 202.648C609.295 203.606 609.138 204.42 608.824 205.091C608.509 205.761 608.081 206.273 607.54 206.625C606.998 206.977 606.384 207.153 605.699 207.153C605.199 207.153 604.784 207.07 604.455 206.903C604.125 206.737 603.86 206.536 603.659 206.301C603.462 206.062 603.309 205.837 603.199 205.625H603.114V210.273H601.057ZM603.074 202.636C603.074 203.201 603.153 203.695 603.312 204.119C603.475 204.544 603.708 204.875 604.011 205.114C604.318 205.348 604.689 205.466 605.125 205.466C605.58 205.466 605.96 205.345 606.267 205.102C606.574 204.856 606.805 204.521 606.96 204.097C607.119 203.669 607.199 203.182 607.199 202.636C607.199 202.095 607.121 201.614 606.966 201.193C606.811 200.773 606.58 200.443 606.273 200.205C605.966 199.966 605.583 199.847 605.125 199.847C604.686 199.847 604.312 199.962 604.006 200.193C603.699 200.424 603.466 200.748 603.307 201.165C603.152 201.581 603.074 202.072 603.074 202.636ZM613.568 207.176C613.015 207.176 612.517 207.078 612.074 206.881C611.634 206.68 611.286 206.384 611.028 205.994C610.775 205.604 610.648 205.123 610.648 204.551C610.648 204.059 610.739 203.652 610.92 203.33C611.102 203.008 611.35 202.75 611.665 202.557C611.979 202.364 612.333 202.218 612.727 202.119C613.125 202.017 613.536 201.943 613.96 201.898C614.472 201.845 614.886 201.797 615.205 201.756C615.523 201.71 615.754 201.642 615.898 201.551C616.045 201.456 616.119 201.311 616.119 201.114V201.08C616.119 200.652 615.992 200.32 615.739 200.085C615.485 199.85 615.119 199.733 614.642 199.733C614.138 199.733 613.739 199.843 613.443 200.062C613.152 200.282 612.955 200.542 612.852 200.841L610.932 200.568C611.083 200.038 611.333 199.595 611.682 199.239C612.03 198.879 612.456 198.61 612.96 198.432C613.464 198.25 614.021 198.159 614.631 198.159C615.051 198.159 615.47 198.208 615.886 198.307C616.303 198.405 616.684 198.568 617.028 198.795C617.373 199.019 617.65 199.324 617.858 199.71C618.07 200.097 618.176 200.58 618.176 201.159V207H616.199V205.801H616.131C616.006 206.044 615.83 206.271 615.602 206.483C615.379 206.691 615.097 206.86 614.756 206.989C614.419 207.114 614.023 207.176 613.568 207.176ZM614.102 205.665C614.515 205.665 614.873 205.583 615.176 205.42C615.479 205.254 615.712 205.034 615.875 204.761C616.042 204.489 616.125 204.191 616.125 203.869V202.841C616.061 202.894 615.951 202.943 615.795 202.989C615.644 203.034 615.473 203.074 615.284 203.108C615.095 203.142 614.907 203.172 614.722 203.199C614.536 203.225 614.375 203.248 614.239 203.267C613.932 203.309 613.657 203.377 613.415 203.472C613.172 203.566 612.981 203.699 612.841 203.869C612.701 204.036 612.631 204.252 612.631 204.517C612.631 204.896 612.769 205.182 613.045 205.375C613.322 205.568 613.674 205.665 614.102 205.665ZM620.244 207V198.273H622.239V199.727H622.33C622.489 199.223 622.761 198.835 623.148 198.562C623.538 198.286 623.983 198.148 624.483 198.148C624.597 198.148 624.723 198.153 624.864 198.165C625.008 198.172 625.127 198.186 625.222 198.205V200.097C625.134 200.066 624.996 200.04 624.807 200.017C624.621 199.991 624.441 199.977 624.267 199.977C623.892 199.977 623.555 200.059 623.256 200.222C622.96 200.381 622.727 200.602 622.557 200.886C622.386 201.17 622.301 201.498 622.301 201.869V207H620.244ZM628.943 207.176C628.39 207.176 627.892 207.078 627.449 206.881C627.009 206.68 626.661 206.384 626.403 205.994C626.15 205.604 626.023 205.123 626.023 204.551C626.023 204.059 626.114 203.652 626.295 203.33C626.477 203.008 626.725 202.75 627.04 202.557C627.354 202.364 627.708 202.218 628.102 202.119C628.5 202.017 628.911 201.943 629.335 201.898C629.847 201.845 630.261 201.797 630.58 201.756C630.898 201.71 631.129 201.642 631.273 201.551C631.42 201.456 631.494 201.311 631.494 201.114V201.08C631.494 200.652 631.367 200.32 631.114 200.085C630.86 199.85 630.494 199.733 630.017 199.733C629.513 199.733 629.114 199.843 628.818 200.062C628.527 200.282 628.33 200.542 628.227 200.841L626.307 200.568C626.458 200.038 626.708 199.595 627.057 199.239C627.405 198.879 627.831 198.61 628.335 198.432C628.839 198.25 629.396 198.159 630.006 198.159C630.426 198.159 630.845 198.208 631.261 198.307C631.678 198.405 632.059 198.568 632.403 198.795C632.748 199.019 633.025 199.324 633.233 199.71C633.445 200.097 633.551 200.58 633.551 201.159V207H631.574V205.801H631.506C631.381 206.044 631.205 206.271 630.977 206.483C630.754 206.691 630.472 206.86 630.131 206.989C629.794 207.114 629.398 207.176 628.943 207.176ZM629.477 205.665C629.89 205.665 630.248 205.583 630.551 205.42C630.854 205.254 631.087 205.034 631.25 204.761C631.417 204.489 631.5 204.191 631.5 203.869V202.841C631.436 202.894 631.326 202.943 631.17 202.989C631.019 203.034 630.848 203.074 630.659 203.108C630.47 203.142 630.282 203.172 630.097 203.199C629.911 203.225 629.75 203.248 629.614 203.267C629.307 203.309 629.032 203.377 628.79 203.472C628.547 203.566 628.356 203.699 628.216 203.869C628.076 204.036 628.006 204.252 628.006 204.517C628.006 204.896 628.144 205.182 628.42 205.375C628.697 205.568 629.049 205.665 629.477 205.665ZM635.619 207V198.273H637.585V199.756H637.688C637.869 199.256 638.17 198.866 638.591 198.585C639.011 198.301 639.513 198.159 640.097 198.159C640.688 198.159 641.186 198.303 641.591 198.591C642 198.875 642.288 199.263 642.455 199.756H642.545C642.739 199.271 643.064 198.884 643.523 198.597C643.985 198.305 644.532 198.159 645.165 198.159C645.968 198.159 646.623 198.413 647.131 198.92C647.638 199.428 647.892 200.169 647.892 201.142V207H645.83V201.46C645.83 200.919 645.686 200.523 645.398 200.273C645.11 200.019 644.758 199.892 644.341 199.892C643.845 199.892 643.456 200.047 643.176 200.358C642.9 200.665 642.761 201.064 642.761 201.557V207H640.744V201.375C640.744 200.924 640.608 200.564 640.335 200.295C640.066 200.027 639.714 199.892 639.278 199.892C638.983 199.892 638.714 199.968 638.472 200.119C638.229 200.267 638.036 200.477 637.892 200.75C637.748 201.019 637.676 201.333 637.676 201.693V207H635.619ZM653.842 207.17C652.967 207.17 652.212 206.989 651.575 206.625C650.943 206.258 650.456 205.739 650.115 205.068C649.774 204.394 649.604 203.6 649.604 202.688C649.604 201.79 649.774 201.002 650.115 200.324C650.46 199.642 650.941 199.112 651.558 198.733C652.176 198.35 652.901 198.159 653.734 198.159C654.272 198.159 654.78 198.246 655.257 198.42C655.738 198.591 656.162 198.856 656.53 199.216C656.901 199.576 657.193 200.034 657.405 200.591C657.617 201.144 657.723 201.803 657.723 202.568V203.199H650.57V201.812H655.751C655.748 201.419 655.662 201.068 655.496 200.761C655.329 200.451 655.096 200.206 654.797 200.028C654.501 199.85 654.157 199.761 653.763 199.761C653.342 199.761 652.973 199.864 652.655 200.068C652.337 200.269 652.089 200.534 651.911 200.864C651.736 201.189 651.647 201.547 651.643 201.938V203.148C651.643 203.655 651.736 204.091 651.922 204.455C652.107 204.814 652.367 205.091 652.7 205.284C653.034 205.473 653.424 205.568 653.871 205.568C654.17 205.568 654.441 205.527 654.683 205.443C654.926 205.356 655.136 205.229 655.314 205.062C655.492 204.896 655.626 204.689 655.717 204.443L657.638 204.659C657.517 205.167 657.286 205.61 656.945 205.989C656.607 206.364 656.176 206.655 655.649 206.864C655.123 207.068 654.52 207.17 653.842 207.17ZM663.821 198.273V199.864H658.804V198.273H663.821ZM660.043 196.182H662.099V204.375C662.099 204.652 662.141 204.864 662.224 205.011C662.312 205.155 662.425 205.254 662.565 205.307C662.705 205.36 662.861 205.386 663.031 205.386C663.16 205.386 663.277 205.377 663.384 205.358C663.493 205.339 663.577 205.322 663.634 205.307L663.98 206.915C663.87 206.953 663.713 206.994 663.509 207.04C663.308 207.085 663.062 207.112 662.77 207.119C662.255 207.134 661.791 207.057 661.378 206.886C660.965 206.712 660.637 206.443 660.395 206.08C660.156 205.716 660.039 205.261 660.043 204.716V196.182ZM669.311 207.17C668.436 207.17 667.68 206.989 667.044 206.625C666.411 206.258 665.925 205.739 665.584 205.068C665.243 204.394 665.072 203.6 665.072 202.688C665.072 201.79 665.243 201.002 665.584 200.324C665.929 199.642 666.41 199.112 667.027 198.733C667.644 198.35 668.37 198.159 669.203 198.159C669.741 198.159 670.249 198.246 670.726 198.42C671.207 198.591 671.631 198.856 671.999 199.216C672.37 199.576 672.661 200.034 672.874 200.591C673.086 201.144 673.192 201.803 673.192 202.568V203.199H666.038V201.812H671.22C671.216 201.419 671.131 201.068 670.964 200.761C670.798 200.451 670.565 200.206 670.266 200.028C669.97 199.85 669.625 199.761 669.232 199.761C668.811 199.761 668.442 199.864 668.124 200.068C667.805 200.269 667.557 200.534 667.379 200.864C667.205 201.189 667.116 201.547 667.112 201.938V203.148C667.112 203.655 667.205 204.091 667.391 204.455C667.576 204.814 667.836 205.091 668.169 205.284C668.502 205.473 668.893 205.568 669.339 205.568C669.639 205.568 669.91 205.527 670.152 205.443C670.394 205.356 670.605 205.229 670.783 205.062C670.961 204.896 671.095 204.689 671.186 204.443L673.107 204.659C672.985 205.167 672.754 205.61 672.413 205.989C672.076 206.364 671.644 206.655 671.118 206.864C670.591 207.068 669.989 207.17 669.311 207.17ZM674.932 207V198.273H676.926V199.727H677.017C677.176 199.223 677.449 198.835 677.835 198.562C678.225 198.286 678.67 198.148 679.17 198.148C679.284 198.148 679.411 198.153 679.551 198.165C679.695 198.172 679.814 198.186 679.909 198.205V200.097C679.822 200.066 679.684 200.04 679.494 200.017C679.309 199.991 679.129 199.977 678.955 199.977C678.58 199.977 678.242 200.059 677.943 200.222C677.648 200.381 677.415 200.602 677.244 200.886C677.074 201.17 676.989 201.498 676.989 201.869V207H674.932ZM688.173 200.58L686.298 200.784C686.245 200.595 686.152 200.417 686.02 200.25C685.891 200.083 685.717 199.949 685.497 199.847C685.277 199.744 685.009 199.693 684.69 199.693C684.262 199.693 683.902 199.786 683.611 199.972C683.323 200.157 683.181 200.398 683.185 200.693C683.181 200.947 683.274 201.153 683.463 201.312C683.656 201.472 683.974 201.602 684.418 201.705L685.906 202.023C686.732 202.201 687.346 202.483 687.747 202.869C688.152 203.256 688.357 203.761 688.361 204.386C688.357 204.936 688.196 205.42 687.878 205.841C687.563 206.258 687.126 206.583 686.565 206.818C686.005 207.053 685.361 207.17 684.634 207.17C683.565 207.17 682.705 206.947 682.054 206.5C681.402 206.049 681.014 205.422 680.889 204.619L682.895 204.426C682.986 204.82 683.179 205.117 683.474 205.318C683.77 205.519 684.154 205.619 684.628 205.619C685.116 205.619 685.509 205.519 685.804 205.318C686.103 205.117 686.253 204.869 686.253 204.574C686.253 204.324 686.156 204.117 685.963 203.955C685.774 203.792 685.478 203.667 685.077 203.58L683.588 203.267C682.751 203.093 682.132 202.799 681.73 202.386C681.329 201.97 681.13 201.443 681.134 200.807C681.13 200.269 681.276 199.803 681.571 199.409C681.87 199.011 682.285 198.705 682.815 198.489C683.349 198.269 683.965 198.159 684.662 198.159C685.685 198.159 686.49 198.377 687.077 198.812C687.668 199.248 688.033 199.837 688.173 200.58Z" fill="black"/>
<g clip-path="url(#clip2_1_44)">
<path d="M933 282C951.516 282 968.82 280.32 984.914 276.961C1001.01 273.602 1013.7 268.641 1023 262.078V282C1023 287.391 1018.98 292.391 1010.93 297C1002.88 301.609 991.945 305.262 978.117 307.957C964.289 310.652 949.25 312 933 312C916.75 312 901.711 310.652 887.883 307.957C874.055 305.262 863.117 301.609 855.07 297C847.023 292.391 843 287.391 843 282V262.078C852.297 268.641 864.992 273.602 881.086 276.961C897.18 280.32 914.484 282 933 282ZM933 372C951.516 372 968.82 370.32 984.914 366.961C1001.01 363.602 1013.7 358.641 1023 352.078V372C1023 377.391 1018.98 382.391 1010.93 387C1002.88 391.609 991.945 395.262 978.117 397.957C964.289 400.652 949.25 402 933 402C916.75 402 901.711 400.652 887.883 397.957C874.055 395.262 863.117 391.609 855.07 387C847.023 382.391 843 377.391 843 372V352.078C852.297 358.641 864.992 363.602 881.086 366.961C897.18 370.32 914.484 372 933 372ZM933 327C951.516 327 968.82 325.32 984.914 321.961C1001.01 318.602 1013.7 313.641 1023 307.078V327C1023 332.391 1018.98 337.391 1010.93 342C1002.88 346.609 991.945 350.262 978.117 352.957C964.289 355.652 949.25 357 933 357C916.75 357 901.711 355.652 887.883 352.957C874.055 350.262 863.117 346.609 855.07 342C847.023 337.391 843 332.391 843 327V307.078C852.297 313.641 864.992 318.602 881.086 321.961C897.18 325.32 914.484 327 933 327ZM933 192C949.25 192 964.289 193.348 978.117 196.043C991.945 198.738 1002.88 202.391 1010.93 207C1018.98 211.609 1023 216.609 1023 222V237C1023 242.391 1018.98 247.391 1010.93 252C1002.88 256.609 991.945 260.262 978.117 262.957C964.289 265.652 949.25 267 933 267C916.75 267 901.711 265.652 887.883 262.957C874.055 260.262 863.117 256.609 855.07 252C847.023 247.391 843 242.391 843 237V222C843 216.609 847.023 211.609 855.07 207C863.117 202.391 874.055 198.738 887.883 196.043C901.711 193.348 916.75 192 933 192Z" fill="black"/>
</g>
<path d="M763.811 303.074V294.926C746.5 289.827 738.025 264.184 738.025 214.946V125.119C738.025 70.4323 731.307 48.2379 714.702 48.2379H710V0H716.477C744.244 0 757.335 37.9405 757.335 117.571V193.751C757.335 248.438 763.811 266.533 783 266.533V331.467C763.811 331.467 757.335 349.562 757.335 404.249V480.429C757.335 560.06 744.261 598 716.477 598H710V549.812H714.702C731.307 549.812 738.025 527.618 738.025 472.931V383.054C738.025 333.866 746.5 308.223 763.811 303.074V303.074ZM763.811 303.074V294.926C746.5 289.827 738.025 264.184 738.025 214.946V125.119C738.025 70.4323 731.307 48.2379 714.702 48.2379H710V0H716.477C744.244 0 757.335 37.9405 757.335 117.571V193.751C757.335 248.438 763.811 266.533 783 266.533V331.467C763.811 331.467 757.335 349.562 757.335 404.249V480.429C757.335 560.06 744.261 598 716.477 598H710V549.812H714.702C731.307 549.812 738.025 527.618 738.025 472.931V383.054C738.025 333.866 746.5 308.223 763.811 303.074" fill="black"/>
<path d="M973.479 429.273V417.273H975.501V418.716H975.621C975.727 418.504 975.876 418.278 976.07 418.04C976.263 417.797 976.524 417.591 976.854 417.42C977.183 417.246 977.604 417.159 978.115 417.159C978.789 417.159 979.397 417.331 979.939 417.676C980.484 418.017 980.916 418.523 981.234 419.193C981.556 419.86 981.717 420.678 981.717 421.648C981.717 422.606 981.56 423.42 981.246 424.091C980.931 424.761 980.503 425.273 979.962 425.625C979.42 425.977 978.806 426.153 978.121 426.153C977.621 426.153 977.206 426.07 976.876 425.903C976.547 425.737 976.282 425.536 976.081 425.301C975.884 425.062 975.731 424.837 975.621 424.625H975.536V429.273H973.479ZM975.496 421.636C975.496 422.201 975.575 422.695 975.734 423.119C975.897 423.544 976.13 423.875 976.433 424.114C976.74 424.348 977.111 424.466 977.547 424.466C978.001 424.466 978.382 424.345 978.689 424.102C978.996 423.856 979.227 423.521 979.382 423.097C979.541 422.669 979.621 422.182 979.621 421.636C979.621 421.095 979.543 420.614 979.388 420.193C979.232 419.773 979.001 419.443 978.695 419.205C978.388 418.966 978.005 418.847 977.547 418.847C977.107 418.847 976.734 418.962 976.428 419.193C976.121 419.424 975.888 419.748 975.729 420.165C975.573 420.581 975.496 421.072 975.496 421.636ZM983.479 426V417.273H985.473V418.727H985.564C985.723 418.223 985.996 417.835 986.382 417.562C986.772 417.286 987.217 417.148 987.717 417.148C987.831 417.148 987.958 417.153 988.098 417.165C988.242 417.172 988.361 417.186 988.456 417.205V419.097C988.369 419.066 988.231 419.04 988.041 419.017C987.856 418.991 987.676 418.977 987.501 418.977C987.126 418.977 986.789 419.059 986.49 419.222C986.195 419.381 985.962 419.602 985.791 419.886C985.621 420.17 985.536 420.498 985.536 420.869V426H983.479ZM993.27 426.17C992.418 426.17 991.679 425.983 991.054 425.608C990.429 425.233 989.944 424.708 989.599 424.034C989.259 423.36 989.088 422.572 989.088 421.67C989.088 420.769 989.259 419.979 989.599 419.301C989.944 418.623 990.429 418.097 991.054 417.722C991.679 417.347 992.418 417.159 993.27 417.159C994.122 417.159 994.861 417.347 995.486 417.722C996.111 418.097 996.594 418.623 996.935 419.301C997.279 419.979 997.452 420.769 997.452 421.67C997.452 422.572 997.279 423.36 996.935 424.034C996.594 424.708 996.111 425.233 995.486 425.608C994.861 425.983 994.122 426.17 993.27 426.17ZM993.281 424.523C993.743 424.523 994.13 424.396 994.44 424.142C994.751 423.884 994.982 423.54 995.134 423.108C995.289 422.676 995.366 422.195 995.366 421.665C995.366 421.131 995.289 420.648 995.134 420.216C994.982 419.78 994.751 419.434 994.44 419.176C994.13 418.919 993.743 418.79 993.281 418.79C992.808 418.79 992.414 418.919 992.099 419.176C991.789 419.434 991.556 419.78 991.401 420.216C991.249 420.648 991.173 421.131 991.173 421.665C991.173 422.195 991.249 422.676 991.401 423.108C991.556 423.54 991.789 423.884 992.099 424.142C992.414 424.396 992.808 424.523 993.281 424.523ZM1003.62 417.273V418.864H998.459V417.273H1003.62ZM999.749 426V416.449C999.749 415.862 999.87 415.373 1000.11 414.983C1000.36 414.593 1000.69 414.301 1001.1 414.108C1001.51 413.915 1001.97 413.818 1002.48 413.818C1002.83 413.818 1003.15 413.847 1003.42 413.903C1003.7 413.96 1003.91 414.011 1004.04 414.057L1003.63 415.648C1003.54 415.621 1003.43 415.595 1003.3 415.568C1003.17 415.538 1003.02 415.523 1002.86 415.523C1002.47 415.523 1002.2 415.616 1002.04 415.801C1001.89 415.983 1001.81 416.244 1001.81 416.585V426H999.749ZM1005.23 426V417.273H1007.29V426H1005.23ZM1006.26 416.034C1005.94 416.034 1005.66 415.926 1005.42 415.71C1005.19 415.491 1005.07 415.227 1005.07 414.92C1005.07 414.61 1005.19 414.347 1005.42 414.131C1005.66 413.911 1005.94 413.801 1006.26 413.801C1006.59 413.801 1006.87 413.911 1007.1 414.131C1007.34 414.347 1007.46 414.61 1007.46 414.92C1007.46 415.227 1007.34 415.491 1007.1 415.71C1006.87 415.926 1006.59 416.034 1006.26 416.034ZM1011.46 414.364V426H1009.4V414.364H1011.46ZM1017.44 426.17C1016.56 426.17 1015.81 425.989 1015.17 425.625C1014.54 425.258 1014.05 424.739 1013.71 424.068C1013.37 423.394 1013.2 422.6 1013.2 421.688C1013.2 420.79 1013.37 420.002 1013.71 419.324C1014.05 418.642 1014.53 418.112 1015.15 417.733C1015.77 417.35 1016.49 417.159 1017.33 417.159C1017.87 417.159 1018.37 417.246 1018.85 417.42C1019.33 417.591 1019.76 417.856 1020.12 418.216C1020.49 418.576 1020.79 419.034 1021 419.591C1021.21 420.144 1021.32 420.803 1021.32 421.568V422.199H1014.16V420.812H1019.35C1019.34 420.419 1019.26 420.068 1019.09 419.761C1018.92 419.451 1018.69 419.206 1018.39 419.028C1018.1 418.85 1017.75 418.761 1017.36 418.761C1016.94 418.761 1016.57 418.864 1016.25 419.068C1015.93 419.269 1015.68 419.534 1015.5 419.864C1015.33 420.189 1015.24 420.547 1015.24 420.938V422.148C1015.24 422.655 1015.33 423.091 1015.52 423.455C1015.7 423.814 1015.96 424.091 1016.29 424.284C1016.63 424.473 1017.02 424.568 1017.46 424.568C1017.76 424.568 1018.03 424.527 1018.28 424.443C1018.52 424.356 1018.73 424.229 1018.91 424.062C1019.09 423.896 1019.22 423.689 1019.31 423.443L1021.23 423.659C1021.11 424.167 1020.88 424.61 1020.54 424.989C1020.2 425.364 1019.77 425.655 1019.24 425.864C1018.72 426.068 1018.11 426.17 1017.44 426.17Z" fill="black"/>
<path d="M848.393 151.554C846.984 153.532 846.4 154.725 845.933 157.09H855.569V153.194L866.539 159.858L855.569 166.112V162.216H845.933C846.415 164.557 846.803 165.723 848.393 167.65C849.822 169.446 850.741 170.239 852.494 171.443C854.254 172.404 855.258 172.811 857.107 173.083C860.007 173.225 861.569 173.138 864.079 172.263C866.425 171.214 867.593 170.561 869.205 168.675C870.828 167.042 871.153 166.112 872.075 163.959C872.575 162.414 872.735 161.506 872.69 159.858C872.741 158.23 872.507 157.29 872.099 155.648L872.075 155.552C871.284 153.424 870.587 152.359 869.205 150.529C867.566 148.895 866.455 148.123 864.079 147.043C861.574 146.252 860.06 146.068 857.107 146.326C854.688 146.893 853.718 147.257 852.494 147.966C850.719 148.969 849.828 149.771 848.393 151.554Z" fill="#0096DE"/>
<path d="M838.845 154.424C837.836 152.215 837.096 151.112 835.28 149.525L830.462 157.87L833.836 159.818L822.58 165.986L822.649 153.36L826.023 155.307L830.841 146.962C828.573 146.209 827.369 145.962 824.905 146.376C822.635 146.715 821.489 147.114 819.57 148.03C817.857 149.074 817.003 149.74 815.843 151.206C814.27 153.646 813.564 155.042 813.067 157.653C812.802 160.21 812.784 161.548 813.612 163.887C814.214 166.109 814.857 166.855 816.261 168.73C817.348 169.936 818.055 170.529 819.504 171.314C820.889 172.171 821.821 172.439 823.447 172.907L823.541 172.934C825.779 173.313 827.051 173.242 829.327 172.96C831.561 172.358 832.785 171.781 834.908 170.263C836.846 168.49 837.763 167.271 839.016 164.585C839.734 162.206 839.904 161.184 839.902 159.769C839.92 157.73 839.672 156.558 838.845 154.424Z" fill="#30B808"/>
<path d="M841.178 144.84C843.595 145.072 844.921 144.982 847.203 144.203L842.384 135.857L839.01 137.805L839.297 124.973L850.197 131.346L846.823 133.294L851.642 141.64C853.428 140.052 854.244 139.133 855.117 136.793C855.959 134.657 856.186 133.465 856.352 131.345C856.304 129.339 856.155 128.266 855.466 126.529C854.139 123.947 853.283 122.638 851.27 120.902C849.188 119.394 848.038 118.709 845.599 118.257C843.373 117.667 842.406 117.851 840.08 118.129C838.492 118.468 837.626 118.784 836.221 119.646C834.786 120.417 834.088 121.089 832.87 122.264L832.799 122.332C831.352 124.081 830.778 125.217 829.884 127.33C829.288 129.566 829.176 130.914 829.429 133.512C829.996 136.076 830.593 137.48 832.293 139.908C833.994 141.719 834.794 142.378 836.02 143.083C837.777 144.118 838.916 144.49 841.178 144.84Z" fill="#FF7D17"/>
<path fill-rule="evenodd" clip-rule="evenodd" d="M904.029 118.736C903.865 119.12 898.327 131.267 891.722 145.73C885.117 160.194 879.666 172.188 879.61 172.384C879.515 172.714 879.766 172.741 882.935 172.741H886.363L889.372 166.114L892.382 159.487L904.361 159.54L916.339 159.592L919.302 166.116L922.264 172.639L925.754 172.695L929.245 172.75L928.961 172.083C928.805 171.716 923.361 159.766 916.863 145.527C910.365 131.287 904.886 119.278 904.688 118.838L904.327 118.039L904.029 118.736ZM1020.81 145.151C1014.03 160.025 1008.44 172.32 1008.38 172.473C1008.29 172.702 1008.88 172.741 1011.76 172.695L1015.25 172.639L1018.06 166.421C1019.6 163.002 1020.96 160.043 1021.08 159.847C1021.29 159.514 1022.08 159.49 1033.14 159.49C1042.36 159.49 1045.02 159.547 1045.17 159.745C1045.28 159.885 1046.66 162.844 1048.23 166.319L1051.09 172.639L1054.55 172.695C1056.45 172.725 1058 172.703 1058 172.645C1058 172.542 1033.56 118.867 1033.28 118.362C1033.2 118.217 1027.81 129.799 1020.81 145.151ZM969.588 123.307V126.263L974.404 126.263C982.179 126.264 986.324 126.724 990.191 128.016C992.3 128.721 994.909 130.087 996.625 131.386C999.97 133.919 1002.14 137.854 1002.96 142.876C1003.42 145.744 1003.26 149.719 1002.57 152.398C1001.94 154.85 1000.56 157.584 999.03 159.407C997.707 160.988 995.629 162.648 993.719 163.651C991.911 164.6 989.21 165.526 986.863 166.001C984.407 166.498 980.896 166.827 978.054 166.828L975.874 166.829V153.477V140.124H972.731H969.588V156.451V172.778L977.344 172.684C983.212 172.613 985.633 172.507 987.289 172.249C992.684 171.406 997.438 169.378 1001.22 166.304C1003.49 164.46 1005.7 161.682 1007.09 158.914C1008.11 156.878 1009.08 153.682 1009.45 151.132C1009.71 149.354 1009.76 148.025 1009.67 145.628C1009.54 141.916 1009.05 139.345 1007.91 136.302C1006.22 131.794 1003.44 128.246 999.397 125.457C997.596 124.213 994.784 122.889 992.291 122.11C987.767 120.697 984.548 120.355 975.722 120.353L969.588 120.351V123.307ZM936.268 120.966C935.37 121.237 934.339 122.133 933.876 123.047C933.539 123.71 933.467 124.154 933.532 125.173C933.622 126.597 933.932 127.157 935.198 128.187C935.895 128.754 936.097 128.811 937.431 128.811C938.691 128.811 939.015 128.732 939.74 128.25C940.631 127.657 941.28 126.616 941.503 125.419C941.715 124.282 941.268 123.017 940.316 122.06C939.172 120.91 937.738 120.522 936.268 120.966ZM953.698 121.057C952.753 121.396 951.879 122.201 951.434 123.143C951.024 124.011 951.009 125.834 951.406 126.605C951.828 127.426 952.744 128.31 953.511 128.635C954.475 129.045 955.94 128.979 956.965 128.48C957.983 127.985 958.787 126.899 959.069 125.637C959.356 124.354 958.857 122.839 957.843 121.918C957.047 121.196 955.95 120.754 954.988 120.769C954.709 120.773 954.129 120.903 953.698 121.057ZM909.049 143.089L913.597 153.477L904.452 153.53C899.423 153.559 895.265 153.541 895.214 153.489C895.141 153.415 899.146 144.116 903.955 133.193C904.177 132.689 904.391 132.372 904.43 132.488C904.469 132.605 906.548 137.375 909.049 143.089ZM1037.82 142.953C1040.33 148.703 1042.39 153.445 1042.39 153.493C1042.39 153.54 1038.22 153.579 1033.14 153.579C1025.82 153.579 1023.91 153.525 1023.99 153.324C1024.47 152.078 1033.14 132.397 1033.19 132.441C1033.22 132.473 1035.3 137.204 1037.82 142.953ZM934.44 140.26C934.365 140.335 934.305 147.674 934.305 156.569V172.741H937.448H940.591V156.433V140.124H937.583C935.928 140.124 934.514 140.186 934.44 140.26ZM951.946 156.433V172.741H955.089H958.232V156.433V140.124H955.089H951.946V156.433Z" fill="black"/>
<defs>
<clipPath id="clip0_1_44">
<rect width="150" height="132.252" fill="white" transform="translate(235 249)"/>
</clipPath>
<clipPath id="clip1_1_44">
<rect width="150" height="132.252" fill="white" transform="translate(399 249)"/>
</clipPath>
<clipPath id="clip2_1_44">
<rect width="180" height="210" fill="white" transform="translate(843 192)"/>
</clipPath>
</defs>
</svg>
